<svg width="34" height="35" viewBox="0 0 34 35" fill="none" xmlns="http://www.w3.org/2000/svg">
<path d="M33.6693 14.6251H32.3V14.5546H17V21.3546H26.6076C25.2059 25.313 21.4396 28.1546 17 28.1546C11.3671 28.1546 6.8 23.5875 6.8 17.9546C6.8 12.3216 11.3671 7.75459 17 7.75459C19.6002 7.75459 21.9657 8.73549 23.7669 10.3377L28.5753 5.52929C25.5391 2.69964 21.4778 0.95459 17 0.95459C7.61175 0.95459 0 8.56634 0 17.9546C0 27.3428 7.61175 34.9546 17 34.9546C26.3883 34.9546 34 27.3428 34 17.9546C34 16.8147 33.8827 15.7021 33.6693 14.6251Z" fill="#FFC107"/>
<path d="M1.95996 10.0419L7.54531 14.1381C9.05661 10.3964 12.7167 7.75459 16.9999 7.75459C19.6 7.75459 21.9656 8.73549 23.7667 10.3377L28.5752 5.52929C25.539 2.69964 21.4777 0.95459 16.9999 0.95459C10.4702 0.95459 4.80746 4.64104 1.95996 10.0419Z" fill="#FF3D00"/>
<path d="M17.0005 34.9545C21.3916 34.9545 25.3815 33.2741 28.3981 30.5413L23.1366 26.0891C21.3725 27.4307 19.2168 28.1563 17.0005 28.1546C12.5788 28.1546 8.82431 25.3351 7.40991 21.4005L1.86621 25.6717C4.67971 31.1771 10.3934 34.9545 17.0005 34.9545Z" fill="#4CAF50"/>
<path d="M33.6693 14.6251H32.3V14.5546H17V21.3546H26.6076C25.9371 23.2385 24.7294 24.8848 23.1336 26.0899L23.1361 26.0882L28.3977 30.5405C28.0254 30.8788 34 26.4546 34 17.9546C34 16.8147 33.8827 15.7021 33.6693 14.6251Z" fill="#1976D2"/>
</svg>
